<svg aria-hidden="true" style="position: absolute; width: 0; height: 0; overflow: hidden;" version="1.1" xmlns="http://www.w3.org/2000/svg" xmlns:xlink="http://www.w3.org/1999/xlink">
<defs>
<symbol id="icon-chevron-small-right" viewBox="0 0 20 20">
<path d="M11 10l-3.141-3.42c-0.268-0.27-0.268-0.707 0-0.978 0.268-0.27 0.701-0.27 0.969 0l3.83 3.908c0.268 0.271 0.268 0.709 0 0.979l-3.83 3.908c-0.267 0.272-0.701 0.27-0.969 0s-0.268-0.707 0-0.978l3.141-3.419z"></path>
</symbol>
<symbol id="icon-alert-triangle" viewBox="0 0 24 24">
<path d="M11.148 4.374c0.073-0.123 0.185-0.242 0.334-0.332 0.236-0.143 0.506-0.178 0.756-0.116s0.474 0.216 0.614 0.448l8.466 14.133c0.070 0.12 0.119 0.268 0.128 0.434-0.015 0.368-0.119 0.591-0.283 0.759-0.18 0.184-0.427 0.298-0.693 0.301l-16.937-0.001c-0.152-0.001-0.321-0.041-0.481-0.134-0.239-0.138-0.399-0.359-0.466-0.607s-0.038-0.519 0.092-0.745zM9.432 3.346l-8.47 14.14c-0.422 0.731-0.506 1.55-0.308 2.29s0.68 1.408 1.398 1.822c0.464 0.268 0.976 0.4 1.475 0.402h16.943c0.839-0.009 1.587-0.354 2.123-0.902s0.864-1.303 0.855-2.131c-0.006-0.536-0.153-1.044-0.406-1.474l-8.474-14.147c-0.432-0.713-1.11-1.181-1.854-1.363s-1.561-0.081-2.269 0.349c-0.429 0.26-0.775 0.615-1.012 1.014zM11 9v4c0 0.552 0.448 1 1 1s1-0.448 1-1v-4c0-0.552-0.448-1-1-1s-1 0.448-1 1zM12 18c0.552 0 1-0.448 1-1s-0.448-1-1-1-1 0.448-1 1 0.448 1 1 1z"></path>
</symbol>

<symbol id="icon-skeleton-img" viewBox="0 0 16 20">
<path d="M14.066 0H7v5a2 2 0 0 1-2 2H0v11a1.97 1.97 0 0 0 1.934 2h12.132A1.97 1.97 0 0 0 16 18V2a1.97 1.97 0 0 0-1.934-2ZM10.5 6a1.5 1.5 0 1 1 0 2.999A1.5 1.5 0 0 1 10.5 6Zm2.221 10.515a1 1 0 0 1-.858.485h-8a1 1 0 0 1-.9-1.43L5.6 10.039a.978.978 0 0 1 .936-.57 1 1 0 0 1 .9.632l1.181 2.981.541-1a.945.945 0 0 1 .883-.522 1 1 0 0 1 .879.529l1.832 3.438a1 1 0 0 1-.031.988Z"></path>
<path d="M5 5V.13a2.96 2.96 0 0 0-1.293.749L.879 3.707A2.98 2.98 0 0 0 .13 5H5Z"></path>
</symbol>


<symbol id="icon-cross" viewBox="0 0 20 20">
<path d="M14.348 14.849c-0.469 0.469-1.229 0.469-1.697 0l-2.651-3.030-2.651 3.029c-0.469 0.469-1.229 0.469-1.697 0-0.469-0.469-0.469-1.229 0-1.697l2.758-3.15-2.759-3.152c-0.469-0.469-0.469-1.228 0-1.697s1.228-0.469 1.697 0l2.652 3.031 2.651-3.031c0.469-0.469 1.228-0.469 1.697 0s0.469 1.229 0 1.697l-2.758 3.152 2.758 3.15c0.469 0.469 0.469 1.229 0 1.698z"></path>
</symbol>
<symbol id="icon-location-pin" viewBox="0 0 20 20">
<path d="M10 2.009c-2.762 0-5 2.229-5 4.99 0 4.774 5 11 5 11s5-6.227 5-11c0-2.76-2.238-4.99-5-4.99zM10 9.76c-1.492 0-2.7-1.209-2.7-2.7s1.208-2.7 2.7-2.7c1.49 0 2.699 1.209 2.699 2.7s-1.209 2.7-2.699 2.7z"></path>
</symbol>
<symbol id="icon-location" viewBox="0 0 32 32">
<path d="M16 0c-5.523 0-10 4.477-10 10 0 10 10 22 10 22s10-12 10-22c0-5.523-4.477-10-10-10zM16 16c-3.314 0-6-2.686-6-6s2.686-6 6-6 6 2.686 6 6-2.686 6-6 6z"></path>
</symbol>
<symbol id="icon-compass" viewBox="0 0 32 32">
<path d="M17 32c-0.072 0-0.144-0.008-0.217-0.024-0.458-0.102-0.783-0.507-0.783-0.976v-15h-15c-0.469 0-0.875-0.326-0.976-0.783s0.129-0.925 0.553-1.123l30-14c0.381-0.178 0.833-0.098 1.13 0.199s0.377 0.749 0.199 1.13l-14 30c-0.167 0.358-0.524 0.577-0.906 0.577zM5.508 14h11.492c0.552 0 1 0.448 1 1v11.492l10.931-23.423-23.423 10.931z"></path>
</symbol>
<symbol id="icon-search" viewBox="0 0 32 32">
<path d="M31.008 27.231l-7.58-6.447c-0.784-0.705-1.622-1.029-2.299-0.998 1.789-2.096 2.87-4.815 2.87-7.787 0-6.627-5.373-12-12-12s-12 5.373-12 12 5.373 12 12 12c2.972 0 5.691-1.081 7.787-2.87-0.031 0.677 0.293 1.515 0.998 2.299l6.447 7.58c1.104 1.226 2.907 1.33 4.007 0.23s0.997-2.903-0.23-4.007zM12 20c-4.418 0-8-3.582-8-8s3.582-8 8-8 8 3.582 8 8-3.582 8-8 8z"></path>
</symbol>
<symbol id="icon-target" viewBox="0 0 32 32">
<path d="M32 14h-3.154c-0.864-5.57-5.276-9.982-10.846-10.846v-3.154h-4v3.154c-5.57 0.864-9.982 5.276-10.846 10.846h-3.154v4h3.154c0.864 5.57 5.276 9.982 10.846 10.846v3.154h4v-3.154c5.57-0.864 9.982-5.276 10.846-10.846h3.154v-4zM24.776 14h-3.118c-0.603-1.705-1.953-3.056-3.658-3.658v-3.118c3.36 0.765 6.010 3.416 6.776 6.776zM16 18c-1.105 0-2-0.895-2-2s0.895-2 2-2c1.105 0 2 0.895 2 2s-0.895 2-2 2zM14 7.224v3.118c-1.705 0.603-3.056 1.953-3.658 3.658h-3.118c0.765-3.36 3.416-6.010 6.776-6.776zM7.224 18h3.118c0.603 1.705 1.953 3.056 3.658 3.658v3.118c-3.36-0.765-6.010-3.416-6.776-6.776zM18 24.776v-3.118c1.705-0.603 3.056-1.953 3.658-3.658h3.118c-0.765 3.36-3.416 6.010-6.776 6.776z"></path>
</symbol>
</defs>
</svg>
